<svg xmlns="http://www.w3.org/2000/svg" width="156.149" height="35" viewBox="0 0 156.149 35">
  <g id="Logo" transform="translate(-101 -58)">
    <path id="mistrium" d="M.615,9.507H0V1.714H1.2V9.507Zm5.361.952-.527.264-.381-.835q-.5-1.128-1.23-2.534T2.769,5.186L1.2,1.714V.6h.732l.322.747q.527,1.26.879,1.992t.718,1.509Q4.6,6.475,5.068,7.4t1.04,2.08l.381.747Zm7.339.029-.469-.22.7-1.421q.249-.527.688-1.45t1.187-2.549q.366-.791.718-1.509t.879-1.992L17.344.6h.732V1.934L16.509,5.186q-.322.688-1.04,2.139t-.908,1.89l-.732,1.509Zm5.347-.981h-.586V1.934h1.2V9.507Zm-16.875,0H1.2V1.714l.674,1.479L2.4,4.365V9.507Zm3.135,1.45-.513.234-.366-.806q-.439-.937-.806-1.7l-.5-1.055L2.4,6.826V4.365l.366.82q.352.747,1.069,2.168t1.23,2.534l.381.835Zm3.545,7.456h-.63l-1.1-2.373q-.615-1.274-.688-1.421t-.205-.439l-.527-1.04.542-.249.5-.234.527,1.128q.176.352.41.864T8.745,17.7l.337.718Zm.894-.688-.278.688L8.745,17.7q-1.2-2.549-1.45-3.047t-.41-.864l-.527-1.128.527-.234.513-.234.527,1.128q.19.4.615,1.362t.835,1.758l.264.615Zm.557,0-.278-.674.264-.615q.4-.791.82-1.729T11.44,13.2l.5-1,.483.234.5.234-.469.952q-.249.483-.483,1.011T10.532,17.7l-.337.718Zm.894.688H10.2l.337-.718q1.2-2.549,1.436-3.062t.483-1.011l.469-.952.483.234.5.22-.483,1.025-.205.454q-.059.161-.674,1.436l-1.113,2.373ZM14.3,10.942l-.469-.22.732-1.509q.205-.439.894-1.86t1.055-2.168l.366-.762V6.68l-.337.806q-.132.278-.527,1.1T15.5,9.7l-.688,1.479ZM17.49,9.507h-.615V4.424l.6-1.245.6-1.245V9.507ZM9.258,20.64h-.41L8.6,20.068l-.278-.6H9.639V20.64Zm-.293-1.172H8.32l-.234-.527-.249-.527H9.082l.264.5.293.557ZM10.02,20.64H9.639V19.468h1.3l-.264.6-.249.571Zm.293-1.172H9.639l.293-.557.264-.5h1.23l-.249.527-.234.527Zm-.674,0-.557-1.055.278-.688.278-.674.278.674.278.688ZM.6,1.714H0V.6H1.2V1.714Zm18.076.22h-.6V.6h1.2V1.934ZM.6,20.64H0V19.526H1.2V20.64Zm0-1.113H0V18.413H1.2v1.113ZM1.8,20.64H1.2V19.526H2.4V20.64Zm0-1.113H1.2V18.413H2.4v1.113ZM.6,11.733H0V10.62H1.2v1.113Zm0-1.113H0V9.507H1.2V10.62Zm1.2,1.113H1.2V10.62H2.4v1.113Zm0-1.113H1.2V9.507H2.4V10.62ZM.6,18.413H0v-6.68H1.2v6.68Zm1.2,0H1.2v-6.68H2.4v6.68ZM17.476,20.64h-.6V19.526h1.2V20.64Zm0-1.113h-.6V18.413h1.2v1.113Zm1.2,1.113h-.6V19.526h1.2V20.64Zm0-1.113h-.6V18.413h1.2v1.113Zm-1.2-7.793h-.6V10.62h1.2v1.113Zm0-1.113h-.6V9.507h1.2V10.62Zm1.2,1.113h-.6V10.62h1.2v1.113Zm0-1.113h-.6V9.507h1.2V10.62Zm-1.2,7.793h-.6v-6.68h1.2v6.68Zm1.2,0h-.6v-6.68h1.2v6.68ZM5.845,12.905l-.513.249-.234-.5-.234-.483.527-.249.513-.234.234.483.22.5Zm-.454-.981-.527.249-.22-.5-.234-.483.527-.249.513-.234.22.483.234.5Zm1.494.5-.527.249-.22-.5L5.9,11.689l.513-.249.527-.234.22.483.234.5Zm-.469-.981-.513.249-.234-.5-.22-.483.513-.249.527-.234.22.483.234.5Zm6.006,1.011-.5-.22.234-.5.234-.5.483.234.5.234-.234.483-.234.5Zm.454-.981-.483-.234.22-.483.234-.5.483.234.5.234-.234.483-.22.5Zm.527,1.436-.5-.22.234-.5.234-.483.483.22.5.234-.234.5-.234.483Zm.454-.981-.483-.22.22-.5.234-.483.483.22.5.234-.234.483-.22.5Z" transform="translate(148.851 65.36)" fill="#292019"/>
    <path id="mistrium-2" data-name="mistrium" d="M23.183,11.733h-.6V10.62h1.2v1.113Zm0-1.113h-.6V9.507h1.2V10.62Zm1.2,1.113h-.6V10.62h1.2v1.113Zm0-1.113h-.6V9.507h1.2V10.62Zm-1.2-1.113h-.6V2.827h1.2v6.68Zm1.2,0h-.6V2.827h1.2v6.68Zm-1.2,8.906h-.6v-6.68h1.2v6.68Zm1.2,0h-.6v-6.68h1.2v6.68Zm-1.2,2.227h-.6V19.526h1.2V20.64Zm0-1.113h-.6V18.413h1.2v1.113Zm1.2,1.113h-.6V19.526h1.2V20.64Zm0-1.113h-.6V18.413h1.2v1.113Zm-1.2-16.7h-.6V1.714h1.2V2.827Zm0-1.113h-.6V.6h1.2V1.714Zm1.2,1.113h-.6V1.714h1.2V2.827Zm0-1.113h-.6V.6h1.2V1.714Z" transform="translate(148.851 65.36)" fill="#292019"/>
    <path id="mistrium-3" data-name="mistrium" d="M29.988,10.518a8.9,8.9,0,0,1-2.52-2.109A4.787,4.787,0,0,1,26.6,5.625v-.19h1.157v.146a3.735,3.735,0,0,0,.659,2.08,7.8,7.8,0,0,0,2.153,1.787l.352.205-.278.5-.322.542Zm.586-1.069a7.8,7.8,0,0,1-2.153-1.787,3.735,3.735,0,0,1-.659-2.08V5.435h1.157v.1a2.726,2.726,0,0,0,.5,1.494,6.519,6.519,0,0,0,1.772,1.392l.337.19-.308.542-.293.5ZM27.19,5.142H26.6l.015-.19a4.793,4.793,0,0,1,1.758-3.413A6.475,6.475,0,0,1,32.186.029L32.508,0V1.04l-.278.015a5.254,5.254,0,0,0-2.974,1.172A3.925,3.925,0,0,0,27.776,4.98l-.015.161Zm1.143,0h-.571l.015-.161a3.925,3.925,0,0,1,1.479-2.754,5.254,5.254,0,0,1,2.974-1.172l.278-.015V2.183h-.176a3.97,3.97,0,0,0-2.373.85A2.666,2.666,0,0,0,28.919,5v.146Zm2.651,15.015H30.9V19.087h.088a5.041,5.041,0,0,0,2.871-1.025,3.1,3.1,0,0,0,1.2-2.417v-.1h1.157L36.2,15.7a4.34,4.34,0,0,1-1.582,3.164A5.924,5.924,0,0,1,30.984,20.156Zm.22,1.04-.308.015V20.156h.088a5.924,5.924,0,0,0,3.633-1.289A4.34,4.34,0,0,0,36.2,15.7l.015-.161h1.157l-.015.205a5.406,5.406,0,0,1-1.963,3.926A6.944,6.944,0,0,1,31.2,21.2Zm4.438-6.108h-.586l-.015-.205a3.115,3.115,0,0,0-.688-1.523,6.494,6.494,0,0,0-1.816-1.377l-.293-.176.293-.5.308-.557L33.27,11a7.8,7.8,0,0,1,2.109,1.611,3.911,3.911,0,0,1,.835,2.241v.234Zm1.113,0h-.542v-.234a3.911,3.911,0,0,0-.835-2.241A7.8,7.8,0,0,0,33.27,11l-.425-.249.308-.527.293-.5.439.249a7.214,7.214,0,0,1,2.432,2.036,4.953,4.953,0,0,1,1.04,2.783l.015.293ZM27.19,5.435H26.6V5.288h1.157v.146Zm0-.146H26.6V5.142h1.157v.146Zm1.143.146h-.571V5.288h1.157v.146Zm0-.146h-.571V5.142h1.157v.146Zm1.216,15.894-.85-.073V20.054l.835.073.776.029v1.055Zm-.015-1.055-.835-.073v-1.1l.85.088.762.044v1.069Zm.908,1.084h-.132V20.156H30.6v1.055Zm.015-1.055h-.146V19.087H30.6v1.069Zm.293,1.055H30.6V20.156H30.9v1.055Zm0-1.055H30.6V19.087H30.9v1.069Zm1.9-17.974h-.146V1.04H32.8V2.183Zm0-1.143h-.146V0H32.8V1.04Zm.293,1.143H32.8V1.04h.293V2.2Zm0-1.143H32.8V0h.293V1.04Zm.571,1.216L33.094,2.2V1.04l.439.073.425.117V2.373Zm.015-1.143-.439-.073V0l.425.015.439.059V1.23Zm2.109,14.429h-.586v-.22h1.157v.22Zm0-.22h-.586v-.234h1.157v.234Zm1.143.22h-.571v-.22h1.157v.22Zm0-.22h-.571v-.234h1.157v.234ZM26.9,20.757l-.6-.234v-1.2l.6.293.6.205v1.1Zm0-1.143-.6-.293v-1.23l.63.337.571.234v1.157Zm1.2,1.421-.6-.117v-1.1l.586.132.615.1v1.055Zm-.015-1.084-.586-.132V18.662l.615.19.586.1v1.1Zm6.5-17.358-.63-.22V1.23l.615.176.586.205v1.23Zm-.015-1.187-.615-.176V.073l.6.146.6.176V1.611ZM35.73,3.149l-.571-.308V1.611l.6.249.6.293V3.56ZM35.76,1.86l-.6-.249V.4l.6.234.6.264v1.26Zm-3.208,9.419-.308.527-.469-.278-.483-.278.293-.527.308-.513.483.278.469.278Zm-.967-.557-.293.527-.483-.278-.483-.278.293-.527.308-.513.483.278.483.278Zm1.567-.483-.308.527-.469-.278-.483-.278.293-.527.308-.513.483.278.469.278Zm-.967-.557-.293.527-.483-.278-.483-.278.293-.527.308-.513.483.278.483.278Z" transform="translate(148.851 65.36)" fill="#292019"/>
    <path id="mistrium-4" data-name="mistrium" d="M39.372,2.827H38.83V1.714h3.853V2.827H39.372Zm0-1.113H38.83V.6h3.853V1.714H39.372Zm6.255,1.113h-.542V1.714h3.853V2.827H45.627Zm0-1.113h-.542V.6h3.853V1.714H45.627ZM43.283,20.64h-.6V19.526h1.2V20.64Zm0-1.113h-.6V18.413h1.2v1.113Zm1.2,1.113h-.6V19.526h1.2V20.64Zm0-1.113h-.6V18.413h1.2v1.113Zm5.054-16.7h-.6V1.714h1.2V2.827Zm0-1.113h-.6V.6h1.2V1.714Zm1.2,1.113h-.6V1.714h1.2V2.827Zm0-1.113h-.6V.6h1.2V1.714ZM37.028,2.827h-.6V1.714h1.2V2.827Zm0-1.113h-.6V.6h1.2V1.714Zm1.2,1.113h-.6V1.714h1.2V2.827Zm0-1.113h-.6V.6h1.2V1.714Zm5.054,10.02h-.6V10.62h1.2v1.113Zm0-1.113h-.6V9.507h1.2V10.62Zm1.2,1.113h-.6V10.62h1.2v1.113Zm0-1.113h-.6V9.507h1.2V10.62Zm-1.2-7.793h-.6V1.714h1.2V2.827Zm0-1.113h-.6V.6h1.2V1.714Zm1.2,1.113h-.6V1.714h1.2V2.827Zm0-1.113h-.6V.6h1.2V1.714Zm-1.2,7.793h-.6V2.827h1.2v6.68Zm1.2,0h-.6V2.827h1.2v6.68Zm-1.2,8.906h-.6v-6.68h1.2v6.68Zm1.2,0h-.6v-6.68h1.2v6.68Z" transform="translate(148.851 65.36)" fill="#292019"/>
    <path id="mistrium-5" data-name="mistrium" d="M52.989,18.413h-.6V13.872h1.2v4.541Zm0-6.768h-.6V2.827h1.2v8.818Zm1.2,6.768h-.6V13.872h1.2v4.541Zm0-6.768h-.6V2.827h1.2v8.818Zm.7,2.227h-.1V12.759h.469q.088,0,.4-.015t.557-.044l.249-.029.322.5.322.5-.19.029a8.266,8.266,0,0,1-.879.132q-.439.044-.894.044h-.249Zm0-1.113h-.1V11.646h.571q.059,0,.234-.015l.176-.015.352.542.337.513-.249.029q-.249.029-.557.044t-.4.015h-.366Zm5.815-5.713h-.615v-.1a3.717,3.717,0,0,0-1.436-2.871,5.185,5.185,0,0,0-3.545-1.245h-.322V1.714h.322a6.5,6.5,0,0,1,4.395,1.553,4.7,4.7,0,0,1,1.8,3.662v.117Zm1.216,0H61.31V6.929a4.7,4.7,0,0,0-1.8-3.662,6.5,6.5,0,0,0-4.395-1.553h-.322V.6h.352a7.655,7.655,0,0,1,5.3,1.86A5.645,5.645,0,0,1,62.54,6.826v.22Zm-.513,11.763-.483.337-.4-.542q-.366-.483-1.055-1.523t-1.963-2.842l-.41-.571.571-.146.557-.19.4.557q1.113,1.567,1.772,2.5t1.113,1.567l.352.527ZM58.8,11.719l-.264.146-.322-.454-.337-.483.249-.146A3.881,3.881,0,0,0,59.493,9.39a3.661,3.661,0,0,0,.6-1.948v-.1H61.31v.117a4.538,4.538,0,0,1-.7,2.417A5.707,5.707,0,0,1,58.8,11.719Zm3.545,6.431-.483.337-.352-.527q-.439-.645-1.113-1.567t-1.772-2.5l-.4-.557.527-.22.483-.249.439.615q1.069,1.494,1.7,2.4t.967,1.333l.454.63Zm-2.886-5.435-.22.146-.366-.5-.337-.5.264-.146a5.707,5.707,0,0,0,1.8-1.846,4.538,4.538,0,0,0,.7-2.417V7.339h1.23v.22a5.582,5.582,0,0,1-.835,2.944A6.4,6.4,0,0,1,59.464,12.715Zm-2.432-.19-.571.146-.337-.513-.352-.542.586-.1q.542-.161.527-.161l.278.41.4.571Zm.645,1-.571.146-.322-.5-.322-.5.571-.146.527-.19.308.483.366.513Zm.381-1.392-.5.205-.4-.571-.278-.41q.015,0,.527-.176l.469-.249.337.483.322.454Zm.7.981-.527.22-.366-.513-.308-.483.5-.205.483-.264.337.5.366.5Zm1.948-5.771h-.615V7.192H61.31v.146Zm0-.146h-.615V7.046H61.31v.146Zm1.216.146H61.31V7.192h1.23v.146Zm0-.146H61.31V7.046h1.23v.146Zm-8.936,6.68h-.6V12.759h1.2v1.113Zm0-1.113h-.6V11.646h1.2v1.113Zm1.2,1.113h-.6V12.759h1.2v1.113Zm0-1.113h-.6V11.646h1.2v1.113Zm-1.2,7.881h-.6V19.526h1.2V20.64Zm0-1.113h-.6V18.413h1.2v1.113Zm1.2,1.113h-.6V19.526h1.2V20.64Zm0-1.113h-.6V18.413h1.2v1.113Zm-1.2-16.7h-.6V1.714h1.2V2.827Zm0-1.113h-.6V.6h1.2V1.714Zm1.2,1.113h-.6V1.714h1.2V2.827Zm0-1.113h-.6V.6h1.2V1.714Zm8.145,16.45.469-.337.308.454.308.439-.469.322-.469.337-.308-.454-.308-.439Zm.615.879.469-.322.308.439.308.454-.454.322-.469.322-.322-.439-.308-.439ZM61.4,18.809l.469-.322.308.439.308.454-.469.322-.469.322-.308-.439-.308-.439Zm.615.894.469-.322.308.439.322.439-.469.337-.469.322-.322-.439-.308-.454Z" transform="translate(148.851 65.36)" fill="#292019"/>
    <path id="mistrium-6" data-name="mistrium" d="M66.05,11.733h-.6V10.62h1.2v1.113Zm0-1.113h-.6V9.507h1.2V10.62Zm1.2,1.113h-.6V10.62h1.2v1.113Zm0-1.113h-.6V9.507h1.2V10.62Zm-1.2-1.113h-.6V2.827h1.2v6.68Zm1.2,0h-.6V2.827h1.2v6.68Zm-1.2,8.906h-.6v-6.68h1.2v6.68Zm1.2,0h-.6v-6.68h1.2v6.68Zm-1.2,2.227h-.6V19.526h1.2V20.64Zm0-1.113h-.6V18.413h1.2v1.113Zm1.2,1.113h-.6V19.526h1.2V20.64Zm0-1.113h-.6V18.413h1.2v1.113Zm-1.2-16.7h-.6V1.714h1.2V2.827Zm0-1.113h-.6V.6h1.2V1.714Zm1.2,1.113h-.6V1.714h1.2V2.827Zm0-1.113h-.6V.6h1.2V1.714Z" transform="translate(148.851 65.36)" fill="#292019"/>
    <path id="mistrium-7" data-name="mistrium" d="M76.43,20.9a7.093,7.093,0,0,1-4.072-2.227q-1.406-1.67-1.406-5.625V11.733h1.2v1.509a7.7,7.7,0,0,0,1.055,4.438A5.841,5.841,0,0,0,76.459,19.8l.776.117v1.1Zm.029-1.1a5.841,5.841,0,0,1-3.252-2.124,7.7,7.7,0,0,1-1.055-4.438V11.733h1.2v1.7a6.757,6.757,0,0,0,.732,3.442,4.49,4.49,0,0,0,2.461,1.816l.688.146v1.084Zm3.984,1.1-.806.117V19.937l.776-.146a5.612,5.612,0,0,0,3.237-2.153,7.687,7.687,0,0,0,1.055-4.395V11.733h1.2v1.318q0,3.955-1.406,5.625A7.02,7.02,0,0,1,80.443,20.9Zm-.029-1.113-.776.146v-1.1l.688-.146a4.417,4.417,0,0,0,2.446-1.816,6.757,6.757,0,0,0,.732-3.442v-1.7h1.2v1.509a7.687,7.687,0,0,1-1.055,4.395A5.612,5.612,0,0,1,80.414,19.79ZM71.552,2.827h-.6V1.714h1.2V2.827Zm0-1.113h-.6V.6h1.2V1.714Zm1.2,1.113h-.6V1.714h1.2V2.827Zm0-1.113h-.6V.6h1.2V1.714ZM84.105,2.827h-.6V1.714h1.2V2.827Zm0-1.113h-.6V.6h1.2V1.714Zm1.2,1.113h-.6V1.714h1.2V2.827Zm0-1.113h-.6V.6h1.2V1.714ZM71.552,11.733h-.6V10.62h1.2v1.113Zm0-1.113h-.6V9.507h1.2V10.62Zm1.2,1.113h-.6V10.62h1.2v1.113Zm0-1.113h-.6V9.507h1.2V10.62Zm11.353,1.113h-.6V10.62h1.2v1.113Zm0-1.113h-.6V9.507h1.2V10.62Zm1.2,1.113h-.6V10.62h1.2v1.113Zm0-1.113h-.6V9.507h1.2V10.62ZM71.552,9.507h-.6V2.827h1.2v6.68Zm1.2,0h-.6V2.827h1.2v6.68Zm11.353,0h-.6V2.827h1.2v6.68Zm1.2,0h-.6V2.827h1.2v6.68ZM77.836,21.064l-.6-.044v-1.1l.615.073.586.015v1.069ZM77.851,20l-.615-.073V18.838l.63.059.571.015v1.1Zm1.187,1.069-.6.015V20.01L79.022,20l.615-.059v1.084ZM79.022,20l-.586.015v-1.1l.571-.015.63-.059v1.1Z" transform="translate(148.851 65.36)" fill="#292019"/>
    <path id="mistrium-8" data-name="mistrium" d="M89.637,9.507h-.615V1.714h1.2V9.507ZM95,10.459l-.527.264-.381-.835q-.5-1.128-1.23-2.534T91.79,5.186L90.223,1.714V.6h.732l.322.747q.527,1.26.879,1.992t.718,1.509Q93.621,6.475,94.09,7.4t1.04,2.08l.381.747Zm7.339.029-.469-.22.7-1.421q.249-.527.688-1.45t1.187-2.549q.366-.791.718-1.509t.879-1.992L106.365.6h.732V1.934L105.53,5.186q-.322.688-1.04,2.139t-.908,1.89l-.732,1.509Zm5.347-.981H107.1V1.934h1.2V9.507Zm-16.875,0h-.586V1.714L90.9,3.193l.527,1.172V9.507Zm3.135,1.45-.513.234-.366-.806q-.439-.937-.806-1.7l-.5-1.055-.337-.806V4.365l.366.82q.352.747,1.069,2.168t1.23,2.534l.381.835Zm3.545,7.456h-.63l-1.1-2.373q-.615-1.274-.688-1.421t-.205-.439l-.527-1.04.542-.249.5-.234.527,1.128q.176.352.41.864t1.45,3.047l.337.718Zm.894-.688-.278.688-.337-.718q-1.2-2.549-1.45-3.047t-.41-.864l-.527-1.128.527-.234.513-.234.527,1.128q.19.4.615,1.362t.835,1.758l.264.615Zm.557,0-.278-.674.264-.615q.4-.791.82-1.729t.718-1.509l.5-1,.483.234.5.234-.469.952q-.249.483-.483,1.011T99.554,17.7l-.337.718Zm.894.688h-.615l.337-.718q1.2-2.549,1.436-3.062t.483-1.011l.469-.952.483.234.5.22-.483,1.025-.205.454q-.059.161-.674,1.436l-1.113,2.373Zm3.486-7.471-.469-.22.732-1.509q.205-.439.894-1.86t1.055-2.168l.366-.762V6.68l-.337.806q-.132.278-.527,1.1T104.52,9.7l-.688,1.479Zm3.193-1.436H105.9V4.424l.6-1.245.6-1.245V9.507ZM98.279,20.64h-.41l-.249-.571-.278-.6H98.66V20.64Zm-.293-1.172h-.645l-.234-.527-.249-.527H98.1l.264.5.293.557Zm1.055,1.172H98.66V19.468h1.3l-.264.6-.249.571Zm.293-1.172H98.66l.293-.557.264-.5h1.23l-.249.527-.234.527Zm-.674,0L98.1,18.413l.278-.688.278-.674.278.674.278.688ZM89.622,1.714h-.6V.6h1.2V1.714Zm18.076.22h-.6V.6h1.2V1.934ZM89.622,20.64h-.6V19.526h1.2V20.64Zm0-1.113h-.6V18.413h1.2v1.113Zm1.2,1.113h-.6V19.526h1.2V20.64Zm0-1.113h-.6V18.413h1.2v1.113Zm-1.2-7.793h-.6V10.62h1.2v1.113Zm0-1.113h-.6V9.507h1.2V10.62Zm1.2,1.113h-.6V10.62h1.2v1.113Zm0-1.113h-.6V9.507h1.2V10.62Zm-1.2,7.793h-.6v-6.68h1.2v6.68Zm1.2,0h-.6v-6.68h1.2v6.68ZM106.5,20.64h-.6V19.526h1.2V20.64Zm0-1.113h-.6V18.413h1.2v1.113Zm1.2,1.113h-.6V19.526h1.2V20.64Zm0-1.113h-.6V18.413h1.2v1.113Zm-1.2-7.793h-.6V10.62h1.2v1.113Zm0-1.113h-.6V9.507h1.2V10.62Zm1.2,1.113h-.6V10.62h1.2v1.113Zm0-1.113h-.6V9.507h1.2V10.62Zm-1.2,7.793h-.6v-6.68h1.2v6.68Zm1.2,0h-.6v-6.68h1.2v6.68ZM94.866,12.905l-.513.249-.234-.5-.234-.483.527-.249.513-.234.234.483.22.5Zm-.454-.981-.527.249-.22-.5-.234-.483.527-.249.513-.234.22.483.234.5Zm1.494.5-.527.249-.22-.5-.234-.483.513-.249.527-.234.22.483.234.5Zm-.469-.981-.513.249-.234-.5-.22-.483.513-.249.527-.234.22.483.234.5Zm6.006,1.011-.5-.22.234-.5.234-.5.483.234.5.234-.234.483-.234.5Zm.454-.981-.483-.234.22-.483.234-.5.483.234.5.234-.234.483-.22.5Zm.527,1.436-.5-.22.234-.5.234-.483.483.22.5.234-.234.5-.234.483Zm.454-.981-.483-.22.22-.5.234-.483.483.22.5.234-.234.483-.22.5Z" transform="translate(148.851 65.36)" fill="#292019"/>
    <g id="Group_1000001377" data-name="Group 1000001377">
      <circle id="Ellipse_747" data-name="Ellipse 747" cx="17.5" cy="17.5" r="17.5" transform="translate(101 58)"/>
      <g id="Frame" transform="translate(118.524 60.452) rotate(46.929)">
        <g id="Group">
          <path id="Vector" d="M7.758,4.6,2.819,0,0,2.819,4.6,7.765a.8.8,0,0,0,.093.983l2.726,3.176a.834.834,0,0,0,1.193.182l3.493-3.5a.839.839,0,0,0-.182-1.2L8.762,4.689a.8.8,0,0,0-1-.093Z" transform="translate(9.113 8.391)" fill="#fff"/>
          <path id="Vector-2" data-name="Vector" d="M7.461,1.059,2.779,5.728a.889.889,0,0,1-.708.261,1.846,1.846,0,0,0-1.523.536,1.877,1.877,0,0,0,0,2.65L2.2,10.829a1.88,1.88,0,0,0,2.65,0A1.86,1.86,0,0,0,5.388,9.31.885.885,0,0,1,5.649,8.6a.554.554,0,0,1,.784,0l.99.99,3.63-3.63-1-.993a.55.55,0,0,1,0-.78l2.839-2.839-.3-.289a3.633,3.633,0,0,0-5.129,0Z" transform="translate(0.607 1.347)" fill="#fff"/>
        </g>
      </g>
    </g>
  </g>
</svg>
